# xmcd CD database file
#
# Track frame offsets:
#	182
#	11515
#	25837
#	40505
#	50812
#	64285
#	75217
#	84592
#	102300
#	110300
#	123537
#	136930
#	151547
#	159425
#	168515
#	180155
#	192547
#	205557
#	217437
#	229955
#
# Disc length: 3208 seconds
#
# Revision: 0
# Processed by: cddbd v1.4PL0 Copyright (c) Steve Scherf et al.
# Submitted via: Feurio! 1.60.2ß - http://www.feurio.com
#
DISCID=020c8614
DTITLE=Johnny Cash - Classic Cash Hall of Fame Series
DYEAR=1988
DGENRE=Country
TTITLE0=Get Rhythm
TTITLE1=Tennessee Flat Top Box
TTITLE2=Long Black Veil
TTITLE3=Thing Called Love
TTITLE4=I Still Miss Someone
TTITLE5=Cry, Cry, Cry
TTITLE6=Blue Train
TTITLE7=Sunday Morning Coming Down
TTITLE8=Five Feet High and Rising
TTITLE9=Peace In The Valley
TTITLE10=Don't Take Your Guns To Town
TTITLE11=Home Of The Blues
TTITLE12=Guess Things Happen That Way
TTITLE13=I Got Stripes
TTITLE14=I Walk The Line
TTITLE15=Ring Of Fire
TTITLE16=Ballad Of Ira Hayes
TTITLE17=The Ways Of A Woman In Love
TTITLE18=Folsom Prison Blues
TTITLE19=Supper Time
EXTD=
EXTT0=
EXTT1=
EXTT2=
EXTT3=
EXTT4=
EXTT5=
EXTT6=
EXTT7=
EXTT8=
EXTT9=
EXTT10=
EXTT11=
EXTT12=
EXTT13=
EXTT14=
EXTT15=
EXTT16=
EXTT17=
EXTT18=
EXTT19=
PLAYORDER=
